<svg xmlns="http://www.w3.org/2000/svg" viewBox="0 0 679.43 679.43"><defs><style>.cls-1{fill:#aad0e2;}.cls-2{fill:#b3d5e3;}.cls-3{fill:#c3dee8;}.cls-4{fill:#a5c7dd;}.cls-5{fill:#2d568e;}.cls-6{fill:#3966a5;}.cls-7{fill:#5272b0;}</style></defs><title>Mesa de trabajo 519</title><g id="Object"><path class="cls-1" d="M544.19,203.27c-2.7,0-5.38.1-8,.28a110.64,110.64,0,0,0-175.59-69.46,116.55,116.55,0,0,0-217.34,69.46c-2.64-.18-5.3-.28-8-.28a116.53,116.53,0,1,0,0,233.05h409a116.53,116.53,0,0,0,0-233Z"/><path class="cls-2" d="M544.19,203.27c-2.7,0-5.38.1-8,.28a110.64,110.64,0,0,0-175.59-69.46,116.55,116.55,0,0,0-217.34,69.46c-2.64-.18-5.3-.28-8-.28a116.53,116.53,0,1,0,0,233.05h409a116.53,116.53,0,0,0,0-233Z"/><path class="cls-3" d="M306.43,100.78A112.49,112.49,0,0,0,159.75,207.91a115,115,0,0,0,.6,11.65c-2.55-.17-5.12-.27-7.71-.27A112.44,112.44,0,0,0,55.13,387.74c-4.29-50.73,3.38-147.59,125-145.22C178.87,209.39,184.75,105.55,306.43,100.78Z"/><path class="cls-4" d="M191.58,436.32H544.19A116.57,116.57,0,0,0,654,280.63C577.33,431.53,318.19,418.18,191.58,436.32Z"/><polygon class="cls-5" points="273.57 462.33 273.57 604.48 405.86 604.48 405.86 462.33 462.63 462.33 339.71 339.42 216.8 462.33 273.57 462.33"/><path class="cls-6" d="M242.81,436.32H436.62l-23.08-23.08c-57.3,9.21-115.44,12.86-164.67,17Z"/><polygon class="cls-7" points="242.81 436.32 216.8 462.33 273.57 462.33 273.57 604.48 405.86 604.48 405.86 462.33 462.63 462.33 436.62 436.32 242.81 436.32"/><path class="cls-6" d="M405.86,462.33s0,98.48-76.2,142.15h76.2Z"/></g></svg>