<svg id="Capa_1" data-name="Capa 1" xmlns="http://www.w3.org/2000/svg" viewBox="0 0 250 528.66"><defs><style>.cls-1{fill:#fff;}</style></defs><title>Mesa de trabajo 1</title><path class="cls-1" d="M123.7,173.57c23.42,28.9,67.34,21.05,80.67-12.86.07.75.14,1.17.14,1.59q0,58.42,0,116.83a4.53,4.53,0,0,1-1,2.76q-19.69,28-39.32,56.15a2.82,2.82,0,0,1-2.64,1.31q-32.85,0-65.71,0c-2.79,0-5.58-.05-8.37,0a2.31,2.31,0,0,1-2.17-1.16q-20-28.6-40-57.16a4.8,4.8,0,0,1-.77-3q0-39.25,0-78.53,0-16.12,0-32.24a11.42,11.42,0,0,1,.12-2C52.88,180,65,189.18,81.88,191S112.63,186.51,123.7,173.57Zm-5.31,102.31a81.27,81.27,0,0,0,18.19-2c9.66-2.32,18.26-6.6,25.33-13.7a12.08,12.08,0,0,0,1.32-1.45,3.68,3.68,0,0,0-2.13-5.78,3.93,3.93,0,0,0-3.94,1.48,42,42,0,0,1-18.58,11.13c-10.46,3.19-21.14,3.43-31.9,2-2.17-.29-4.32-.78-6.49-1.12A3.7,3.7,0,0,0,96,269.22a3.65,3.65,0,0,0,2.29,4.3,8.62,8.62,0,0,0,1.37.37A95,95,0,0,0,118.39,275.88Z"/><path class="cls-1" d="M44.5,400.67c2.26-.5,4.32-.82,6.29-1.41A28.47,28.47,0,0,0,71,374.46c.25-2.89.16-5.81.23-8.72,0-.56,0-1.13.09-2.05.56.74.91,1.18,1.24,1.65,1,1.4,1.92,2.86,3,4.22a3.6,3.6,0,0,0,5.06.86,8.86,8.86,0,0,0,.72-.53l13.15-10.35c.14-.11.28-.22.41-.34,1.57-1.39,2-2.93,1-4.77s-2.24-3.77-3.38-5.65c-.33-.55-.68-1.09-1-1.66,1.34-.43,62.71-.61,66.53-.21-.21.45-.37.86-.59,1.23-1.17,1.92-2.42,3.8-3.52,5.77-1.38,2.47-1,3.92,1.21,5.7q6.5,5.14,13,10.24c2.48,1.95,4.47,1.64,6.32-1,.82-1.16,1.61-2.34,2.43-3.51.19-.26.43-.49.92-1.06,0,2.64,0,4.87,0,7.1a28.81,28.81,0,0,0,25.43,28.92c.35,0,.69.1,1.15.18,0,.56.12,1.07.12,1.58,0,5.34.06,10.69,0,16a27.47,27.47,0,0,1-9.92,21.42A100.61,100.61,0,0,1,179,450.84a36.75,36.75,0,0,1-10.47,4.36,4.33,4.33,0,0,0-3.1,2.66c-2.49,5.33-5.09,10.59-7.5,15.95a4.09,4.09,0,0,1-4.39,2.74c-5.52-.13-11,0-16.56-.05-2.7,0-3.52-.79-3.53-3.49,0-4.86,0-9.73,0-14.6,0-.59,0-1.19,0-1.78a3.51,3.51,0,0,0-3.41-3.46c-1.29-.11-2.6-.06-3.91-.06-2.08,0-4.16,0-6.23,0-3,.05-4.35,1.42-4.37,4.39,0,5,0,10,0,15,0,.53,0,1.07,0,1.6a2.47,2.47,0,0,1-2.39,2.41c-.35,0-.71,0-1.06,0-5.7,0-11.4-.06-17.1,0a3.69,3.69,0,0,1-3.83-2.49c-2.4-5.29-4.94-10.52-7.34-15.82A5.21,5.21,0,0,0,79.8,455a38.24,38.24,0,0,1-11.33-5,95.79,95.79,0,0,1-14.54-10.85,27.8,27.8,0,0,1-9.52-20.92c-.1-5.51,0-11,0-16.56A7.84,7.84,0,0,1,44.5,400.67Z"/><path class="cls-1" d="M111.38,41.91c-.52-.49-.86-.87-1.26-1.19a38.81,38.81,0,0,0-12.42-6.8,9.4,9.4,0,0,1-1.65-.64,3.52,3.52,0,0,1-1.63-4.13,3.42,3.42,0,0,1,3.65-2.49,9.24,9.24,0,0,1,2.06.5,47.4,47.4,0,0,1,18.56,11.57,21.07,21.07,0,0,1,1.58,1.93l.41-.23a8.59,8.59,0,0,0,.19-1.11c0-1.78-.05-3.56,0-5.34a3.57,3.57,0,0,1,7.1-.37,11.27,11.27,0,0,1,.08,1.42c0,1.31,0,2.62,0,3.92,0,.45.07.9.15,1.72l1.8-1.75A48,48,0,0,1,148.73,27.2a10.6,10.6,0,0,1,2.06-.54,3.47,3.47,0,0,1,3.79,2.55,3.54,3.54,0,0,1-1.88,4.18,15,15,0,0,1-1.84.67,39.08,39.08,0,0,0-11.93,6.6c-.23.18-.45.38-.67.59a2.39,2.39,0,0,0-.27.44,6.5,6.5,0,0,0,1.1.3c13.65,1.78,26.47,5.94,38.07,13.49A72,72,0,0,1,196.65,74a38.48,38.48,0,0,1,7.4,20.85c.43,8.89.35,17.8.48,26.7a41.65,41.65,0,0,1-.27,6c-.24-.53-.49-1.06-.73-1.6-6.54-14.59-17.4-24.26-33.07-27.71-17.35-3.82-32.21,1.25-44.46,14.06-.73.77-1.41,1.6-2.27,2.59-.49-.54-1-1-1.39-1.55a46.64,46.64,0,0,0-75.16,5.87c-.8,1.28-1.54,2.61-2.53,4.29,0-.82-.08-1.2-.08-1.58,0-6.47-.17-13,0-19.41.51-16.64,6.75-30.68,19.68-41.4A81.05,81.05,0,0,1,85.83,48.77,101,101,0,0,1,110,42.29,11.74,11.74,0,0,0,111.38,41.91Z"/><path class="cls-1" d="M47.2,144.72c0-19.92,14.14-36.8,33.42-39.69,16.37-2.46,29.56,3.3,39.32,16.76a12,12,0,0,0,1.45,1.79,3.42,3.42,0,0,0,5.06-.3,12.08,12.08,0,0,0,.82-1.16c7.08-10.38,16.86-16.28,29.38-17.51a39.76,39.76,0,0,1,12.65,78.31c-16.26,3.77-32.22-2.51-41.78-16.26l-.2-.29c-2.16-3-5-3-7.26,0a46.38,46.38,0,0,1-4.6,5.64c-11.37,11-24.86,14.69-40,10.09S51.37,167,47.92,151.66a25.05,25.05,0,0,1-.44-3C47.34,147.19,47.27,145.71,47.2,144.72Zm39.92-35a34.5,34.5,0,1,0,34.41,34.7A34.49,34.49,0,0,0,87.12,109.72Zm107.57,34.47a34.47,34.47,0,1,0-34.39,34.52A34.49,34.49,0,0,0,194.69,144.19Z"/><path class="cls-1" d="M203.32,444.16h31.21c.06.52.14,1,.18,1.43q.84,12.24,1.68,24.48a26.13,26.13,0,0,1-1.17,10.54c-2,5.68-5.88,9.21-11.89,10.21a4.74,4.74,0,0,0-2.88,1.48,24.69,24.69,0,0,1-14.95,7.54,9.2,9.2,0,0,1-9.56-4.77,17.49,17.49,0,0,1-2.06-8.9,3,3,0,0,0-1.6-3c-5.56-3.57-7.37-9.95-4.69-16.07a17.47,17.47,0,0,1,9.23-9.23c4.43-1.9,5.89-5.36,6.29-9.67C203.23,446.93,203.24,445.63,203.32,444.16Z"/><path class="cls-1" d="M15.4,444.18H46.5c.17,1.92.28,3.74.5,5.55a15.35,15.35,0,0,0,.68,2.75,7.63,7.63,0,0,0,4.41,4.84,20.6,20.6,0,0,1,7.45,5.37,14.89,14.89,0,0,1,3.94,8.77,12,12,0,0,1-5.77,11.65A3.21,3.21,0,0,0,56,486.24a18,18,0,0,1-1.11,6.81c-1.9,5.25-5.92,7.56-11.44,6.64a24.62,24.62,0,0,1-14-7.48A3.78,3.78,0,0,0,27,490.9c-7.75-1.13-11.78-6.62-13-13a36.12,36.12,0,0,1-.31-9.23c.47-7.28,1-14.56,1.49-21.84C15.21,446,15.31,445.17,15.4,444.18Z"/><path class="cls-1" d="M234.14,435.32H207.56a8,8,0,0,1,.34-1,41.27,41.27,0,0,0,4-17.89q-.06-44.68,0-89.37,0-11.11,0-22.25a3.69,3.69,0,0,1,.29-1.58c.27.5.54,1,.79,1.51,3.61,7.47,5.85,15.38,7.81,23.41,3.34,13.71,6.22,27.52,8.46,41.45,1.62,10.08,2.9,20.19,3.76,30.36a328.34,328.34,0,0,1,1.21,34.5A7.79,7.79,0,0,1,234.14,435.32Z"/><path class="cls-1" d="M41.81,435.3H15.89a9.76,9.76,0,0,1-.15-1.18c.14-7.95,0-15.91.49-23.85.48-8.4,1.36-16.79,2.31-25.15a433.5,433.5,0,0,1,7.55-43.81c2.84-13,6.15-25.84,10-38.55A3.83,3.83,0,0,1,37,301.1v1.95q0,56.35-.07,112.71a36.52,36.52,0,0,0,4.45,18.62C41.53,434.58,41.6,434.81,41.81,435.3Z"/><path class="cls-1" d="M44.64,324.34c.55.75.91,1.19,1.23,1.66q8.49,12.53,17,25.05A4.92,4.92,0,0,1,63.8,354c0,5.88,0,11.75,0,17.63a21.19,21.19,0,0,1-17,20.92c-.69.15-1.39.19-2.06.27C44.34,391.4,44.23,328.23,44.64,324.34Z"/><path class="cls-1" d="M204.33,392.91c-1.29-.24-2.4-.38-3.47-.67a21.09,21.09,0,0,1-15.63-20.16c-.07-5.93,0-11.86,0-17.79a3.88,3.88,0,0,1,.54-2q8.94-13.29,18-26.52a9.12,9.12,0,0,1,.6-.72Z"/><path class="cls-1" d="M87.89,355.26l-8.46,6.67a9.75,9.75,0,0,1-.85-.94q-16.72-24.66-33.42-49.34a3.12,3.12,0,0,1-.64-1.6c-.05-5.52,0-11,0-16.88a9.09,9.09,0,0,1,1,1Q66,323.57,86.43,353C86.91,353.68,87.33,354.39,87.89,355.26Zm-4.42-2.65a4.06,4.06,0,1,0-4.08,4A4,4,0,0,0,83.47,352.61Z"/><path class="cls-1" d="M204.47,294.14v1.39c0,4.81,0,9.61,0,14.42a4.44,4.44,0,0,1-.79,2.65q-16.31,24-32.57,48c-.29.43-.63.84-1,1.4l-8.59-6.76c13.89-20.74,28.29-41,42.56-61.25ZM169.9,356.63a4.05,4.05,0,1,0-.06-8.1,4.05,4.05,0,1,0,.06,8.1Z"/><path class="cls-1" d="M84.13,500.43a16.34,16.34,0,0,1,1.24-7.22A4.1,4.1,0,0,1,87.53,491c.75-.34,1.47-.77,2.19-1.18a10,10,0,0,0,5-5.73h17.59v11.44c-1.3.86-2.45,1.55-3.54,2.33a21.38,21.38,0,0,1-15.44,4C90.33,501.48,87.3,500.92,84.13,500.43Z"/><path class="cls-1" d="M135.9,495.79V484.3c1.26-.41,13.89-.57,17.62-.21,1,3.29,3.64,5.12,6.59,6.5a5.92,5.92,0,0,1,3.41,4.25,15.74,15.74,0,0,1,.65,5.41c-.83.2-1.67.45-2.53.57A86.13,86.13,0,0,1,152.5,502a20.3,20.3,0,0,1-13.81-4.79,7.38,7.38,0,0,0-1.33-.86A13.79,13.79,0,0,0,135.9,495.79Z"/><path class="cls-1" d="M114.07,144.3a27,27,0,1,1-26.93-27.15A27,27,0,0,1,114.07,144.3Zm-34,2.38A11.51,11.51,0,1,0,91.49,135.1,11.44,11.44,0,0,0,80.05,146.68Z"/><path class="cls-1" d="M133.22,144.16a27,27,0,1,1,27,27.09A27,27,0,0,1,133.22,144.16Zm17.88,14a11.52,11.52,0,1,0-11.48-11.57A11.54,11.54,0,0,0,151.1,158.13Z"/></svg>