<svg id="Capa_1" data-name="Capa 1" xmlns="http://www.w3.org/2000/svg" viewBox="0 0 250 411.37"><defs><style>.cls-1{fill:#fff;}</style></defs><title>Mesa de trabajo 1</title><path class="cls-1" d="M52.76,290.35c.87,0,1.65,0,2.44,0a39.52,39.52,0,0,0,6.36-.36c8.23-1.72,13.24-6.9,15.31-14.94a20.57,20.57,0,0,0,.53-5c.06-5.43,0-10.86,0-16.3v-1.43c.41.35.66.54.89.76,1.26,1.28,2.51,2.57,3.79,3.83,1.68,1.66,3.52,1.48,4.84-.48q3.83-5.73,7.62-11.49c1.09-1.64.93-2.82-.48-4.24l-3.33-3.45h69.93c-.28.33-.47.58-.69.8-1,1-2,1.9-3,2.89a2.73,2.73,0,0,0-.41,3.75c2.64,4,5.28,8,8,12a2.74,2.74,0,0,0,4.43.41c1.39-1.33,2.71-2.72,4.07-4.09.29-.29.59-.56,1-1,0,.63.07,1.06.07,1.49,0,6.73,0,13.46,0,20.2a16.41,16.41,0,0,0,3.9,10.73,15.79,15.79,0,0,0,12.26,5.88c2.17.05,4.35,0,6.52,0h1.53c0,.51.07.95.06,1.39-.47,18.85-8.77,32.92-25.56,41.77A69.65,69.65,0,0,1,153.54,340,130.71,130.71,0,0,1,126,342c-2.42,0-4.85,0-7.27,0a112.72,112.72,0,0,1-26.31-3.23,61.66,61.66,0,0,1-20.1-8.8,44,44,0,0,1-18.71-28.9,53.92,53.92,0,0,1-.89-9.22C52.67,291.39,52.72,290.94,52.76,290.35Z"/><path class="cls-1" d="M176.53,139.7h27.18c0,.42,0,.83,0,1.24q0,26.84,0,53.68a2.33,2.33,0,0,1-.71,1.88q-17.53,16.88-35,33.81a4.1,4.1,0,0,1-3.19,1.26q-39.33,0-78.65,0a3.59,3.59,0,0,1-2.74-1.12Q68.32,215.71,53.12,201c-1.65-1.59-3.43-3.05-5.19-4.53a2.13,2.13,0,0,1-.85-1.81q0-27,0-53.94v-1.08H74.43l.44,1.89c4.19,16.93,13.85,29.54,29.76,36.91a50.43,50.43,0,0,0,56.51-10.1,53.72,53.72,0,0,0,15.12-27.64C176.33,140.41,176.43,140.09,176.53,139.7Z"/><path class="cls-1" d="M141.42,50.21c1.4-.08,2.73-.18,4.06-.22a23.73,23.73,0,0,1,8.29,1,9.58,9.58,0,0,1,1.06.39,2.68,2.68,0,0,1,.66,4.55c-.18.16-.38.31-.68.56,16,6.56,28.17,17.44,36.93,32.16a83.24,83.24,0,0,1,9.88,25.55H175.23c-.16-.49-.31-1-.47-1.52C169.84,97.57,160.47,86.28,146,79.5a46.7,46.7,0,0,0-25.29-4.21c-18.11,2-31.27,11.47-40.24,27.08a49.14,49.14,0,0,0-4.38,10.38c-.14.47-.31.94-.48,1.46H49.22A83,83,0,0,1,66,78.84,73.59,73.59,0,0,1,97.69,56a1.88,1.88,0,0,0-.19-.4,2.56,2.56,0,0,1,1.15-4.3,22.2,22.2,0,0,1,9-1.32c1.33,0,2.66.14,4.2.23a13.63,13.63,0,0,0-4.11-1.15,46.57,46.57,0,0,0-14.48-.14,8,8,0,0,1-1.38.1,2.7,2.7,0,0,1-.56-5.34,14.6,14.6,0,0,1,1.74-.26c7.13-.83,14.18-.65,21.07,1.65a30.94,30.94,0,0,1,10.17,5.55,2.45,2.45,0,0,0,1.92.69,5.33,5.33,0,0,1,1.13,0,1.76,1.76,0,0,0,1.36-.48,34.49,34.49,0,0,1,18.79-7.57,56,56,0,0,1,13.87.3,2.8,2.8,0,0,1,2.57,2A2.66,2.66,0,0,1,161.26,49c-1.2,0-2.4-.26-3.61-.36A42.17,42.17,0,0,0,142.6,49.7c-.28.08-.56.16-.83.26A1.68,1.68,0,0,0,141.42,50.21Z"/><path class="cls-1" d="M60,326.75H33.31a125,125,0,0,1-6.45-49.26,128.79,128.79,0,0,1,18.27-57.87c.39.36.67.59.93.85Q58.45,233,70.85,245.53a3.06,3.06,0,0,1,1,2.41c0,7.36,0,14.72,0,22.08a14.76,14.76,0,0,1-1.92,7.69,13.18,13.18,0,0,1-11.7,7c-1.41,0-2.82,0-4.4,0,.12-1,.2-1.89.32-2.74a148.26,148.26,0,0,1,3.27-18.24c.26-1,.64-2,.92-3a2.81,2.81,0,0,0-3-3.72,2.71,2.71,0,0,0-2.32,2,65.84,65.84,0,0,0-2,7c-1.3,6.94-2.69,13.87-3.58,20.87a50.11,50.11,0,0,0,4.53,27.47,48.08,48.08,0,0,0,7.43,11.57C59.51,326.12,59.67,326.35,60,326.75Z"/><path class="cls-1" d="M197.85,284.59c-.5,0-.83.09-1.16.09h-6.14A10.56,10.56,0,0,1,180,275.07a21.21,21.21,0,0,1-.13-2.25c0-8.44,0-16.89,0-25.33a2.85,2.85,0,0,1,.91-2.2q10.53-10.57,21-21.21c1.44-1.45,2.82-3,4.35-4.58.31.48.58.88.81,1.3A119.85,119.85,0,0,1,216,240.87a132.92,132.92,0,0,1,6.6,28.51,128.44,128.44,0,0,1,.51,25,131.14,131.14,0,0,1-6.37,31.48,5.89,5.89,0,0,1-.21.59,1.45,1.45,0,0,1-.21.26h-25.1c.39-.5.65-.85.93-1.18a49.94,49.94,0,0,0,10.64-21.46,58.67,58.67,0,0,0,1.12-15,107.46,107.46,0,0,0-1.63-14.43c-.71-4.07-1.54-8.12-2.4-12.17a20.89,20.89,0,0,0-1.28-3.92,2.77,2.77,0,0,0-4.75-.59,2.69,2.69,0,0,0-.46,2.61c2.43,7.3,3.29,14.9,4.38,22.46C197.81,283.55,197.81,284,197.85,284.59Z"/><path class="cls-1" d="M126.13,177.46c-16.35-.52-28.74-7.1-37.9-19.66a46.69,46.69,0,0,1-8.83-23.28c-1.48-15,2.7-28.21,13-39.32a43.65,43.65,0,0,1,26-14c13.82-2.12,26.12,1.52,36.68,10.65a47,47,0,0,1,16.18,30c2,14.35-1.51,27.32-10.68,38.58a44.58,44.58,0,0,1-27,16.12C130.89,177.11,128.12,177.24,126.13,177.46Zm-41.25-49C85,130,85,131,85.1,132a41.12,41.12,0,0,0,10.56,25.32c9.28,10.28,20.9,14.89,34.72,13.28A37.75,37.75,0,0,0,154.63,158c9.56-10.64,12.93-23.13,10.39-37.2a41.15,41.15,0,0,0-8.19-18.22c-12.22-15.7-33.74-20.22-50.74-10.33C92.13,100.34,85.58,113,84.88,128.44Z"/><path class="cls-1" d="M186.82,332.55h27.75c-.21.72-.38,1.38-.58,2a16.66,16.66,0,0,0-1.07,3.85,16,16,0,0,0,.87,3.87,55.75,55.75,0,0,1,1.81,14.88,23.72,23.72,0,0,1-1.18,6.89c-1.73,5.05-5.23,7.92-10.55,8.49a1.86,1.86,0,0,0-1.52.88,16.79,16.79,0,0,1-4,4.15c-4,3-8.42,2.7-12.06-.75a22.41,22.41,0,0,1-4.6-6.67,2.69,2.69,0,0,0-1.54-1.49,5.74,5.74,0,0,1-3.66-5.12,14.19,14.19,0,0,1,.64-5.56,44.94,44.94,0,0,1,3.88-8.81c.83-1.5,1.68-3,2.61-4.43a9.44,9.44,0,0,0,1.34-3.21C185.61,338.61,186.19,335.67,186.82,332.55Z"/><path class="cls-1" d="M35.22,332.56H62.91c.48,2.49,1,4.9,1.41,7.31a16.74,16.74,0,0,0,2.35,5.88A49.71,49.71,0,0,1,72,356.25a29,29,0,0,1,1.24,5.22,8.72,8.72,0,0,1-.22,3.21,5.49,5.49,0,0,1-3.56,4.07A2.41,2.41,0,0,0,68.1,370c-1,1.74-2,3.49-3.14,5.11a12.9,12.9,0,0,1-2.74,2.73,8.27,8.27,0,0,1-9.63.59,16.34,16.34,0,0,1-5.23-5,1.61,1.61,0,0,0-1.27-.84c-6.35-.58-9.89-4.43-11.28-10.22a32.94,32.94,0,0,1-.42-11.46,65.16,65.16,0,0,1,2.34-11.4,2.78,2.78,0,0,0,0-1.71c-.44-1.39-.85-2.79-1.26-4.2C35.37,333.28,35.31,333,35.22,332.56Z"/><path class="cls-1" d="M116,365.44c0,.54.08.91.08,1.28,0,2.67-.08,5.35,0,8a5.72,5.72,0,0,1-4.4,5.67,5.73,5.73,0,0,0-1.49.62,32.93,32.93,0,0,1-21.39,4q-4.41-.63-8.79-1.38a10,10,0,0,1-2.24-.75,2.55,2.55,0,0,1-1.59-2.37,21,21,0,0,1,1.19-8.38,9.82,9.82,0,0,1,5.91-6.08,9,9,0,0,1,3.27-.66c9.36,0,18.72,0,28.08,0Z"/><path class="cls-1" d="M132.92,365.47c.65,0,1.27,0,1.88,0,9.2,0,18.4.06,27.6.06a9.17,9.17,0,0,1,8.17,4.69,13.87,13.87,0,0,1,1.85,5.55,37.59,37.59,0,0,1,.27,4.25,2.73,2.73,0,0,1-2.17,3.11,33.42,33.42,0,0,1-4.87,1.13,65,65,0,0,1-11,1.12A31.52,31.52,0,0,1,138.8,381a6.69,6.69,0,0,0-1.5-.59,6.7,6.7,0,0,1-3-1.75,4.62,4.62,0,0,1-1.45-3.11c-.06-3.18-.06-6.35-.08-9.53A3.42,3.42,0,0,1,132.92,365.47Z"/><path class="cls-1" d="M129.77,359.79a10.09,10.09,0,0,1-.4-5.26,18.81,18.81,0,0,0,0-6,5.84,5.84,0,0,1,0-.73c.41,0,.81-.1,1.21-.12,4-.2,8-.29,12-.62,11.24-.92,22.13-3.28,32.31-8.32,1.31-.64,2.58-1.34,4.14-2.16a218.27,218.27,0,0,0-9.39,23.2Z"/><path class="cls-1" d="M72.58,336.86c.46.22.68.3.88.42a77.28,77.28,0,0,0,22.58,8,135.36,135.36,0,0,0,24.68,2.33h1.4c-.05.57-.05,1.05-.12,1.53a18.74,18.74,0,0,0,.16,5.74,9.67,9.67,0,0,1-.46,4.89H81.81A210.94,210.94,0,0,0,72.58,336.86Z"/><path class="cls-1" d="M47.13,203.62c2,1.7,3.84,3.18,5.55,4.82q17.64,17,35.22,34.12c.27.26.59.46,1,.77l-4.9,7.4c-.32-.29-.58-.49-.8-.72L47.06,213.6c-.32-.32-.68-.59-.63-1.15.2-2.71.37-5.42.56-8.13A6.28,6.28,0,0,1,47.13,203.62Zm38.6,40.09a2.72,2.72,0,0,0-2.59-2.83,2.73,2.73,0,1,0-.33,5.44A2.72,2.72,0,0,0,85.73,243.71Z"/><path class="cls-1" d="M167.39,250.74l-4.83-7.28,41.28-40c.16,1.47.31,2.7.43,3.92.16,1.46.27,2.92.45,4.37a1.45,1.45,0,0,1-.39,1.25c-1.68,1.85-3.28,3.79-5,5.58q-15.39,15.63-30.85,31.2C168.13,250.06,167.79,250.36,167.39,250.74Zm1.21-4.41a2.73,2.73,0,1,0,.08-5.45,2.73,2.73,0,1,0-.08,5.45Z"/><path class="cls-1" d="M177.16,133.91a52.57,52.57,0,0,0-.58-14c.5,0,.86-.07,1.22-.07,8.11,0,16.21.11,24.32.07a3.25,3.25,0,0,1,3.54,3.57c-.07,2.34,0,4.68,0,7,0,.12,0,.25,0,.37a3,3,0,0,1-3.26,3.17q-9,0-18.05,0l-5.64,0C178.23,134,177.78,133.94,177.16,133.91Z"/><path class="cls-1" d="M74.29,120c-.27,2.43-.66,4.71-.76,7s.11,4.57.18,7H72.56q-11.65,0-23.32,0c-2.44,0-3.64-1.17-3.66-3.58s0-4.68,0-7S46.79,120,49.07,120q12.09,0,24.19,0C73.58,119.94,73.91,120,74.29,120Z"/><path class="cls-1" d="M91,125H110.6c-.07.49-.12.94-.2,1.37-1.68,9.37,5.41,18.64,15.4,18.45a15.43,15.43,0,0,0,14.59-12.73,18.6,18.6,0,0,0,.27-3.49c0-1.16-.24-2.32-.37-3.48.84-.25,17.83-.33,19.59-.06.08.6.2,1.25.24,1.9,1,16.15-8.9,31.73-24.49,36.75A33.7,33.7,0,0,1,99.29,153a36,36,0,0,1-8.57-25.53C90.76,126.7,90.9,126,91,125Z"/><path class="cls-1" d="M92.07,119.22A36.3,36.3,0,0,1,102.34,102a32.76,32.76,0,0,1,22.9-9.27c19.11-.11,31,15,33.4,26.51Z"/></svg>